<?xml version="1.0" encoding="utf-8"?>
<!-- Generator: Adobe Illustrator 25.2.1, SVG Export Plug-In . SVG Version: 6.00 Build 0)  -->
<svg version="1.1" id="Layer_1" xmlns="http://www.w3.org/2000/svg" xmlns:xlink="http://www.w3.org/1999/xlink" x="0px" y="0px"
	 viewBox="0 0 512 512" style="enable-background:new 0 0 512 512;" xml:space="preserve">
<style type="text/css">
	.st0{fill:#58524B;}
</style>
<desc>Created with Sketch.</desc>
<g id="Page-1">
	<g id="_x30_01---Accessibility">
		<circle id="Oval" class="st0" cx="256" cy="118.9" r="36.6"/>
		<path id="Shape" class="st0" d="M256,512c141.4,0,256-114.6,256-256S397.4,0,256,0S0,114.6,0,256C0.2,397.3,114.7,511.8,256,512z
			 M256,18.3c131.3,0,237.7,106.4,237.7,237.7S387.3,493.7,256,493.7S18.3,387.3,18.3,256C18.4,124.8,124.8,18.4,256,18.3z"/>
		<path id="Shape_1_" class="st0" d="M125.9,219.4l77.7,7c14.2,1.2,25,13.1,25,27.3v21c0,6.9-1.3,13.7-3.8,20l-44.2,112.5
			c-1.6,3-1.5,6.6,0.4,9.4c1.9,2.8,5.1,4.4,8.5,4.1c3.4-0.3,6.3-2.4,7.6-5.6L239.2,313c2.8-6.8,9.4-11.2,16.8-11.2s14,4.4,16.8,11.2
			l42.2,102.5c1,2.1,2.8,3.8,5,4.6c3.5,1.3,7.4,0.4,9.9-2.3s3.2-6.7,1.7-10l-44.3-112.9c-2.5-6.4-3.8-13.2-3.8-20.1v-21
			c-0.1-14.2,10.8-26.1,25-27.3l77.6-7c2.4-0.2,4.7-1.3,6.3-3.1c1.6-1.8,2.4-4.3,2.2-6.7c-0.2-2.4-1.3-4.7-3.1-6.3
			c-1.8-1.6-4.2-2.4-6.7-2.2l-95.9,8.6c-3.8,0.4-7.6,0.5-11.4,0.5h-42.7c-3.8,0-7.6-0.2-11.4-0.5l-96-8.6c-5-0.4-9.4,3.4-9.8,8.5
			C117,214.7,120.8,219.1,125.9,219.4z"/>
		<path id="Shape_2_" class="st0" d="M256,475.4c121.2,0,219.4-98.2,219.4-219.4S377.2,36.6,256,36.6S36.6,134.8,36.6,256
			C36.7,377.1,134.9,475.3,256,475.4z M256,64c30.3,0,54.9,24.6,54.9,54.9s-24.6,54.9-54.9,54.9c-30.3,0-54.9-24.6-54.9-54.9
			C201.2,88.6,225.7,64,256,64z M128.7,182.9l96.2,8.6c3.3,0.3,6.5,0.4,9.8,0.4h42.7c3.3,0,6.5-0.1,9.8-0.4l96-8.6h0.1
			c15.1-1.2,28.3,10.2,29.4,25.3c1.2,15.1-10.2,28.3-25.3,29.4l-77.5,7c-4.7,0.4-8.3,4.4-8.3,9.1v21c0,4.6,0.9,9.1,2.5,13.4
			l44.2,112.5c5.7,13.8-0.6,29.6-14.3,35.6c-13.6,6-29.6,0-35.9-13.5l-42.3-102.8l-41.9,102.5c-3.9,9.1-12.3,15.5-22.2,16.6
			c-9.8,1.1-19.5-3.2-25.3-11.2c-5.8-8-6.8-18.6-2.6-27.6l44-112.1c1.7-4.3,2.5-8.8,2.5-13.3v-21c0-4.7-3.6-8.7-8.3-9.1l-77.6-7
			c-15.1-1.2-26.4-14.4-25.2-29.5C100.3,193,113.5,181.7,128.7,182.9L128.7,182.9z"/>
	</g>
</g>
</svg>
